<svg xmlns="http://www.w3.org/2000/svg" xmlns:xlink="http://www.w3.org/1999/xlink" width="92.345" height="91.938" viewBox="0 0 92.345 91.938">
  <defs>
    <filter id="Trazado_1898" x="0" y="0" width="92.345" height="91.938" filterUnits="userSpaceOnUse">
      <feOffset dy="3" input="SourceAlpha"/>
      <feGaussianBlur stdDeviation="3" result="blur"/>
      <feFlood flood-color="#ffb100" flood-opacity="0.102"/>
      <feComposite operator="in" in2="blur"/>
      <feComposite in="SourceGraphic"/>
    </filter>
  </defs>
  <g transform="matrix(1, 0, 0, 1, 0, 0)" filter="url(#Trazado_1898)">
    <path id="Trazado_1898-2" data-name="Trazado 1898" d="M1790.36,499.223l9.949-3.241q2.126,4.781,4.249,9.562l7.772-7.007,1.412,1.274,6.359,5.733q2.123-4.781,4.249-9.562l9.949,3.241-.008-10.464,10.407-1.086q-2.132-4.778-4.263-9.556l9.067-5.226-7.782-7,.609-.836,5.547-7.625-9.954-3.226q1.091-5.117,2.182-10.234l-10.405,1.1-2.169-10.237-9.058,5.238-4.654-6.417-1.49-2.053-6.145,8.47-9.058-5.238q-1.084,5.117-2.169,10.237l-10.405-1.1q1.091,5.117,2.183,10.234l-9.954,3.226,5.548,7.625.609.836-7.781,7,9.065,5.226-4.263,9.556,10.408,1.086Q1790.363,493.991,1790.36,499.223Z" transform="translate(-1766.16 -425.61)" fill="#ffb100"/>
  </g>
</svg>
